<svg width="20" height="21" viewBox="0 0 20 21" fill="none" xmlns="http://www.w3.org/2000/svg">
<g id="icon">
<mask id="mask0_587_2758" style="mask-type:alpha" maskUnits="userSpaceOnUse" x="0" y="0" width="20" height="21">
<rect id="Bounding box" y="0.5" width="20" height="20" fill="#D9D9D9"/>
</mask>
<g mask="url(#mask0_587_2758)">
<path id="local_shipping" d="M4.875 16.7917C4.22222 16.7917 3.67 16.5661 3.21833 16.115C2.76722 15.6633 2.54167 15.1111 2.54167 14.4583H1.125V5.75C1.125 5.33333 1.27083 4.97917 1.5625 4.6875C1.85417 4.39583 2.20833 4.25 2.625 4.25H13.9792V7.41667H16.1875L18.875 11.0208V14.4583H17.375C17.375 15.1111 17.1458 15.6633 16.6875 16.115C16.2292 16.5661 15.6736 16.7917 15.0208 16.7917C14.3819 16.7917 13.8333 16.5661 13.375 16.115C12.9167 15.6633 12.6875 15.1111 12.6875 14.4583H7.20833C7.20833 15.1111 6.98278 15.6633 6.53167 16.115C6.08 16.5661 5.52778 16.7917 4.875 16.7917ZM4.875 15.5417C5.18056 15.5417 5.4375 15.4375 5.64583 15.2292C5.85417 15.0208 5.95833 14.7639 5.95833 14.4583C5.95833 14.1528 5.85417 13.8958 5.64583 13.6875C5.4375 13.4792 5.18056 13.375 4.875 13.375C4.56944 13.375 4.3125 13.4792 4.10417 13.6875C3.89583 13.8958 3.79167 14.1528 3.79167 14.4583C3.79167 14.7639 3.89583 15.0208 4.10417 15.2292C4.3125 15.4375 4.56944 15.5417 4.875 15.5417ZM2.375 13.2083H2.97917C3.15972 12.9028 3.41667 12.6458 3.75 12.4375C4.08333 12.2292 4.45833 12.125 4.875 12.125C5.27778 12.125 5.64945 12.2256 5.99 12.4267C6.33 12.6283 6.59028 12.8889 6.77083 13.2083H12.7292V5.5H2.625C2.56944 5.5 2.51389 5.52778 2.45833 5.58333C2.40278 5.63889 2.375 5.69444 2.375 5.75V13.2083ZM15.0417 15.5417C15.3472 15.5417 15.6042 15.4375 15.8125 15.2292C16.0208 15.0208 16.125 14.7639 16.125 14.4583C16.125 14.1528 16.0208 13.8958 15.8125 13.6875C15.6042 13.4792 15.3472 13.375 15.0417 13.375C14.7361 13.375 14.4758 13.4792 14.2608 13.6875C14.0453 13.8958 13.9375 14.1528 13.9375 14.4583C13.9375 14.7639 14.0453 15.0208 14.2608 15.2292C14.4758 15.4375 14.7361 15.5417 15.0417 15.5417ZM13.9792 11.5417H17.7083L15.5417 8.66667H13.9792V11.5417Z" fill="#1C1B1F"/>
</g>
</g>
</svg>
