<svg width="311" height="305" viewBox="0 0 311 305" fill="none" xmlns="http://www.w3.org/2000/svg">
<g filter="url(#filter0_d_1237_1524)">
<path opacity="0.18" d="M55.1004 288.643C44.1174 286.415 33.7783 280.754 25.0661 272.198C14.8193 262.231 3.66481 248.801 4.00771 232.132C4.37079 214.466 9.71606 197.447 15.5051 181.525C23.3314 160.022 34.2236 137.348 31.3392 113.403C28.4548 89.4577 32.3275 60.8033 42.534 40.521C58.6706 8.57761 86.9098 0.828465 115.149 0.0809594C133.807 -0.392461 153.01 0.977968 170.014 10.4713C187.885 20.438 202.287 38.8765 220.441 47.423C232.543 53.0542 245.775 54.1754 257.616 60.5043C272.522 68.5026 284.019 84.3497 291.462 102.19C298.905 120.031 302.697 139.84 305.582 159.499C310.302 192.738 299.087 234.249 282.93 261.459C272.159 279.548 254.126 300.503 235.589 296.118C141.21 273.992 159.343 309.548 55.1004 288.643Z" fill="#66075F"/>
<path d="M182.519 53.0043L245.755 63.3946L201.319 69.2251L182.519 53.0043Z" fill="#66075F"/>
<path d="M201.319 69.2249L204.687 93.7431L210.073 73.386L245.755 63.3943L201.319 69.2249Z" fill="#66075F"/>
<path d="M201.319 69.2249L204.687 93.7431L210.073 73.386L245.755 63.3943L201.319 69.2249Z" fill="url(#paint0_linear_1237_1524)"/>
<path d="M223.527 95.8361L210.073 73.386L245.755 63.3943L223.527 95.8361Z" fill="#66075F"/>
<path d="M204.687 93.7431L217.617 85.9441L210.073 73.386L204.687 93.7431Z" fill="white"/>
<path opacity="0.59" d="M204.687 93.7431L217.617 85.9441L210.073 73.386L204.687 93.7431Z" fill="#66075F"/>
<path d="M194.017 96.1105L193.432 92.8464C194.114 92.6803 194.788 92.464 195.449 92.1985L196.377 95.3132C195.605 95.642 194.817 95.9083 194.017 96.1105Z" fill="#66075F"/>
<path d="M112.083 248.028C110.611 247.43 109.178 246.832 107.787 246.184L108.714 243.07C110.066 243.693 111.478 244.291 112.91 244.864L112.083 248.028ZM99.3754 241.824C97.9634 240.977 96.5918 240.105 95.3412 239.332L96.6119 236.317C97.8424 237.165 99.1535 238.012 100.525 238.809L99.3754 241.824ZM208.298 239.781H203.759V236.442L208.217 236.592L208.298 239.781ZM217.375 239.582L217.234 236.268C218.746 236.268 220.239 236.043 221.671 235.869L221.893 239.183C220.481 239.357 218.968 239.482 217.415 239.582H217.375ZM194.743 238.809L190.245 238.236L190.547 234.922C192.04 235.146 193.513 235.321 194.985 235.495L194.743 238.809ZM231.051 237.613L230.587 234.349C232.059 234.025 233.532 233.651 234.923 233.253L235.528 236.492C234.016 237.015 232.503 237.389 230.97 237.713L231.051 237.613ZM244.303 233.228L243.355 230.138C244.767 229.465 246.118 228.768 247.389 228.02L248.559 231.01C247.127 231.907 245.695 232.655 244.222 233.327L244.303 233.228ZM87.757 232.779C86.5492 231.573 85.404 230.275 84.3279 228.892L86.345 226.6C87.3455 227.885 88.4099 229.092 89.532 230.213L87.757 232.779ZM256.466 225.055L254.812 222.414C255.518 221.741 256.204 221.018 256.829 220.271L257.979 218.876L259.854 221.243L258.604 222.713C257.979 223.61 257.152 224.407 256.385 225.155L256.466 225.055ZM78.9625 219.374C78.2759 217.619 77.7353 215.782 77.3488 213.892L79.971 213.17C80.271 214.887 80.7242 216.559 81.3225 218.153L78.9625 219.374ZM129.188 218.577L124.851 216.384L125.94 213.344C127.292 214.067 128.663 214.789 129.975 215.487L129.188 218.577ZM265.986 212.622L263.788 210.703C264.614 209.254 265.362 207.739 266.027 206.168L268.407 207.688C267.66 209.435 266.818 211.116 265.886 212.721L265.986 212.622ZM116.722 211.675C115.351 210.852 113.999 210.005 112.688 209.183L113.898 206.417C115.209 207.264 116.541 208.112 117.933 208.909L116.722 211.675ZM104.68 203.926C103.369 202.979 102.058 202.007 100.807 201.01L102.24 198.195C103.47 199.166 104.761 200.138 106.052 201.085L104.68 203.926ZM79.8702 202.954L77.2278 202.331C77.5389 200.431 77.9705 198.565 78.5187 196.749L81.0401 197.896C80.5628 199.502 80.1852 201.152 79.9105 202.829L79.8702 202.954ZM271.09 196.774L268.407 196.426C268.484 195.598 268.524 194.767 268.528 193.934C268.526 193.101 268.485 192.269 268.407 191.442L271.09 191.093C271.17 192.062 271.211 193.035 271.211 194.009C271.216 194.89 271.189 195.771 271.13 196.65L271.09 196.774ZM93.2838 194.731C92.0533 193.61 90.8229 192.489 89.653 191.343L91.307 188.726C92.4568 189.848 93.6468 190.944 94.8571 192.04L93.2838 194.731ZM85.1146 188.328L82.8756 186.484C83.7228 184.964 84.6507 183.444 85.639 181.924L87.6561 184.017C86.7888 185.437 85.9012 186.907 85.1146 188.328ZM82.7748 183.992C81.6452 182.696 80.556 181.351 79.5273 180.03L81.5443 177.713C82.5529 179.009 83.5614 180.205 84.691 181.575L82.7748 183.992ZM265.906 181.326C265.231 179.767 264.469 178.269 263.626 176.841L265.805 174.872C266.721 176.463 267.55 178.128 268.286 179.856L265.906 181.326ZM93.7679 176.093L91.9323 173.602C93.0215 172.356 94.1713 171.11 95.3614 169.864L97.0759 172.356C95.9261 173.652 94.8167 174.872 93.7679 176.093ZM73.597 171.309C72.6692 169.765 71.7817 168.195 70.995 166.625L73.2743 164.856C74.0206 166.351 74.8678 167.846 75.7553 169.316L73.597 171.309ZM257.757 168.818C256.728 167.647 255.598 166.476 254.408 165.329L256.062 162.838C257.313 164.034 258.483 165.329 259.572 166.5L257.757 168.818ZM104.136 165.828L102.663 163.087C103.894 162.04 105.185 160.994 106.455 159.972L107.908 162.788C106.697 163.76 105.346 164.781 104.136 165.828ZM247.127 159.075C245.896 158.128 244.605 157.206 243.294 156.309L244.605 153.394C245.957 154.316 247.288 155.288 248.539 156.235L247.127 159.075ZM115.512 157.231L114.241 154.316C115.552 153.419 116.924 152.547 118.275 151.824L119.486 154.814C118.154 155.462 116.783 156.334 115.512 157.206V157.231ZM66.7793 156.584C66.2145 154.789 65.7102 152.946 65.3068 151.152L67.9089 150.28C68.2921 151.949 68.756 153.668 69.2805 155.263L66.7793 156.584ZM235.367 151.376L231.333 149.158L232.382 146.094C233.774 146.841 235.186 147.589 236.537 148.361L235.367 151.376ZM127.554 150.105L126.505 147.04C127.877 146.318 129.309 145.595 130.701 144.922L131.689 148.012C130.317 148.585 128.885 149.308 127.554 150.03V150.105ZM222.982 145.122C221.59 144.524 220.178 143.926 218.746 143.353L219.573 140.188C221.026 140.761 222.478 141.384 223.87 141.982L222.982 145.122ZM140.08 144.125L139.233 140.961C140.685 140.388 142.138 139.814 143.59 139.291L144.356 142.481C143.005 143.079 141.492 143.627 140.08 144.125ZM210.174 140.163C208.742 139.715 207.269 139.266 205.837 138.868L206.442 135.628C207.894 136.027 209.387 136.476 210.86 136.949L210.174 140.163ZM63.9554 139.69C63.9554 138.793 63.9554 137.921 63.9554 137.049C63.9554 136.177 63.9554 135.006 63.9554 134.009L66.6381 134.158V137.049C66.6381 137.049 66.6381 138.718 66.6381 139.54L63.9554 139.69ZM152.969 139.69L152.364 136.65C153.837 136.226 155.329 135.828 156.802 135.454L157.326 138.718C155.874 138.942 154.401 139.341 152.969 139.74V139.69ZM197.103 136.8L195.449 136.65L192.746 136.251L193.029 132.937L195.832 133.361L197.547 133.685L197.103 136.8ZM166.121 136.8L165.758 133.511C167.27 133.261 168.783 133.062 170.276 132.888L170.538 136.177C169.066 136.326 167.593 136.65 166.121 136.775V136.8ZM179.413 135.504V132.19H183.952V135.529C182.378 135.429 180.886 135.454 179.413 135.479V135.504ZM67.7677 123.519L65.1455 122.796C65.4682 120.927 65.8918 119.084 66.3557 117.29L68.9174 118.336C68.4585 120.037 68.0747 121.767 67.7677 123.519ZM72.4473 108.569L70.1277 106.899C70.9089 105.253 71.7571 103.656 72.6692 102.115L74.8476 104.084C73.9673 105.513 73.1525 107.002 72.407 108.544L72.4473 108.569ZM184.718 97.0322C183.17 96.9356 181.628 96.7276 180.099 96.4093L180.543 93.1203C181.972 93.4179 183.413 93.6175 184.859 93.7183L184.718 97.0322ZM80.677 96.0854L78.8616 93.5937C79.9912 92.3479 81.1813 91.102 82.4319 89.9559L84.0455 92.622C82.8756 93.7432 81.7259 94.8894 80.677 96.0854ZM171.244 93.1701C169.816 92.436 168.422 91.6042 167.069 90.6784L168.36 87.7632C169.632 88.6157 170.938 89.3891 172.273 90.0804L171.244 93.1701ZM91.4684 86.8163L90.1976 83.8761C91.5289 83.029 92.9207 82.1818 94.2318 81.3845L95.321 84.4243C94.0704 85.2217 92.719 86.019 91.4684 86.8163ZM159.404 84.3247C158.253 83.3533 157.031 82.519 155.753 81.833L156.882 78.818C158.297 79.6344 159.647 80.6103 160.917 81.7333L159.404 84.3247ZM103.712 80.6868L102.925 77.4974C104.358 76.9742 105.85 76.4758 107.343 76.0024L107.968 79.2416C106.536 79.6652 105.104 80.1635 103.712 80.6868ZM147.483 78.3695C146.111 77.9709 144.659 77.622 143.166 77.323L143.59 74.0589C145.143 74.3579 146.656 74.7317 148.108 75.1552L147.483 78.3695ZM116.783 77.1735L116.4 73.8845C117.892 73.6353 119.425 73.4111 120.938 73.2367L121.18 76.5506C119.607 76.8496 118.134 76.8496 116.783 77.1735ZM134.473 76.2018C133.02 76.2018 131.528 76.0523 130.035 76.0523V72.7383C131.568 72.7383 133.101 72.7383 134.594 72.8878L134.473 76.2018Z" fill="#66075F"/>
<path d="M123.076 251.891L120.817 251.268L121.482 248.029C122.209 248.278 122.915 248.502 123.641 248.701L123.076 251.891Z" fill="#66075F"/>
<path d="M151.315 118.611C151.253 119.734 151.042 120.836 150.69 121.875C150.383 122.452 149.976 122.937 149.498 123.295C149.019 123.653 148.483 123.874 147.926 123.943C146.817 124.167 145.687 124.067 144.578 124.192C143.469 124.317 142.258 125.114 142.379 126.385C142.436 126.774 142.568 127.142 142.763 127.456L144.114 130.272C144.289 130.548 144.375 130.894 144.356 131.243C144.356 131.717 143.852 131.966 143.489 132.165C142.574 132.741 141.766 133.546 141.117 134.528C140.468 135.511 139.991 136.649 139.717 137.871C139.166 140.317 139.166 142.901 139.717 145.346C139.734 145.518 139.778 145.683 139.847 145.833C139.917 145.982 140.009 146.114 140.12 146.218C140.306 146.343 140.515 146.403 140.725 146.393C141.358 146.526 141.963 146.815 142.504 147.243C143.045 147.671 143.51 148.229 143.872 148.885C144.572 150.244 145.199 151.659 145.748 153.12C147.259 156.622 149.466 159.591 152.162 161.749C154.858 163.906 157.954 165.181 161.158 165.454C161.683 165.518 162.213 165.442 162.712 165.23C163.308 164.857 163.79 164.253 164.083 163.511C165.475 160.371 165.072 156.609 165.172 153.17C165.166 151.464 165.427 149.772 165.939 148.187C166.262 147.29 166.564 147.24 167.028 146.717C167.249 146.537 167.431 146.293 167.557 146.006C167.684 145.72 167.752 145.399 167.754 145.072C167.647 144.225 167.478 143.391 167.25 142.581C167.083 141.015 167.369 139.426 168.057 138.096C168.74 136.793 169.366 135.445 169.933 134.059C170.326 132.771 170.571 131.42 170.659 130.047C171.235 126.544 170.754 122.902 169.307 119.807C168.741 118.818 168.012 117.988 167.167 117.374C166.322 116.76 165.381 116.374 164.406 116.244C163.606 116.215 162.809 116.098 162.026 115.895C160.836 115.421 160.432 113.901 159.182 113.403C158.099 112.936 156.933 112.85 155.813 113.154C154.722 113.443 153.72 114.11 152.923 115.076C152.127 116.042 151.569 117.268 151.315 118.611Z" fill="#473F47"/>
<path d="M157.387 268.36C158.125 269.156 158.758 270.089 159.263 271.126C159.362 271.319 159.404 271.547 159.384 271.774C159.384 272.123 159 272.322 158.698 272.422C157.447 272.821 156.125 272.692 154.941 272.055C153.756 271.418 152.778 270.311 152.162 268.909C151.229 267.256 150.722 265.293 150.71 263.277L151.053 260.038C151.094 259.535 151.189 259.041 151.335 258.568C151.53 258.107 151.782 257.687 152.082 257.322C152.58 256.628 153.183 256.061 153.857 255.653C153.935 255.619 154.021 255.619 154.099 255.653C154.26 255.653 154.341 255.902 154.381 256.076C154.494 256.908 154.452 257.759 154.26 258.568C154.025 260.942 154.475 263.341 155.531 265.346C156.041 266.446 156.665 267.459 157.387 268.36Z" fill="#F89659"/>
<path d="M164.144 250.021C164.182 250.273 164.265 250.511 164.386 250.719C164.492 250.891 164.63 251.028 164.789 251.118C165.477 251.471 166.229 251.591 166.968 251.467C167.875 251.467 168.763 251.242 169.65 251.068C169.903 251.071 170.152 250.995 170.374 250.847C170.597 250.699 170.785 250.483 170.921 250.221C170.986 249.925 170.968 249.611 170.869 249.33C170.77 249.049 170.596 248.818 170.377 248.676C169.937 248.398 169.457 248.228 168.965 248.178C168.468 248.099 168.007 247.818 167.654 247.38C167.149 246.608 167.371 245.387 166.847 244.639C166.525 244.342 166.15 244.143 165.754 244.061C165.357 243.979 164.95 244.015 164.567 244.166C162.934 244.789 163.801 248.601 164.144 250.021Z" fill="#F89659"/>
<path d="M171.244 220.346C171.143 220.869 171.062 221.392 170.982 221.916C170.074 228.394 168.965 234.848 167.936 241.301C167.808 242.722 167.345 244.064 166.605 245.163C166.402 245.473 166.143 245.718 165.848 245.878C165.553 246.039 165.232 246.11 164.91 246.085H164.729C163.882 245.736 163.398 244.266 163.398 242.796L163.841 216.384C163.911 216.074 163.911 215.747 163.841 215.437C163.674 215.157 163.452 214.934 163.196 214.789C162.591 214.391 162.006 213.967 161.421 213.544C159.626 212.273 157.871 210.902 156.156 209.482C153.857 207.564 151.618 205.545 149.459 203.378C147.891 202.197 146.647 200.461 145.889 198.394C145.171 195.853 144.35 193.358 143.428 190.919C142.362 187.84 141.094 184.873 139.636 182.049C139.455 181.725 138.769 180.08 138.386 180.006L153.05 181.999C154.35 181.929 155.622 182.482 156.6 183.544C158.198 185.848 159.654 188.297 160.957 190.869C164.003 195.853 167.008 201.01 170.114 206.069C171.389 207.76 172.201 209.905 172.434 212.198C172.261 214.957 171.862 217.687 171.244 220.346Z" fill="#473F47"/>
<path d="M154.583 257.746C154.385 258.087 154.147 258.389 153.877 258.643C153.462 259.09 153.001 259.467 152.505 259.764H152.364C151.802 260.051 151.171 260.051 150.609 259.764C149.137 258.992 149.581 254.532 149.5 252.788C149.359 250.047 149.238 247.331 149.096 244.59C148.854 239.258 148.592 233.926 148.35 228.569C148.229 226.077 148.088 223.585 147.987 221.093L147.241 219.474L146.898 218.751L146.494 217.879L146.071 216.907C145.829 216.409 145.587 215.861 145.325 215.288C144.901 214.316 144.497 213.295 144.074 212.298C143.81 211.629 143.514 210.98 143.186 210.354C143.078 210.143 142.957 209.943 142.823 209.756C142.016 208.676 141.146 207.668 140.221 206.741C137.431 203.531 135.574 199.276 134.937 194.632C134.769 193.364 134.702 192.079 134.735 190.795C134.756 188.799 135.015 186.818 135.501 184.914C135.883 183.556 136.369 182.246 136.954 181.002C137.413 179.897 138.027 178.901 138.769 178.062C139.116 177.666 139.511 177.338 139.939 177.09C142.722 175.521 145.546 179.433 147.483 181.501C149.419 183.569 152.768 186.484 153.816 189.599C154.865 192.713 156.842 218.876 156.842 218.876C156.842 225.304 156.842 231.733 156.539 238.137C156.418 241.949 156.277 245.761 155.975 249.549C155.961 252.369 155.488 255.157 154.583 257.746Z" fill="#473F47"/>
<path d="M152.505 259.764H152.364C151.802 260.051 151.171 260.051 150.609 259.764C149.137 258.992 149.581 254.532 149.5 252.788C149.359 250.047 149.238 247.331 149.096 244.59C148.854 239.258 148.592 233.926 148.35 228.568C148.229 226.077 148.088 223.585 147.987 221.093L147.241 219.474L146.898 218.751L146.494 217.879L146.071 216.907C145.829 216.409 145.587 215.861 145.325 215.288L143.892 212.123L142.823 209.632C142.016 208.551 141.146 207.543 140.221 206.617C137.451 203.439 135.595 199.231 134.937 194.632C134.769 193.364 134.702 192.079 134.735 190.794C134.756 188.799 135.015 186.817 135.501 184.914C135.883 183.556 136.369 182.246 136.954 181.002C137.413 179.897 138.027 178.901 138.769 178.062C138.931 178.246 139.074 178.456 139.193 178.685C140.726 181.401 140.645 184.964 140.806 188.278C140.908 192.412 141.59 196.492 142.823 200.338L143.368 201.708C143.441 201.904 143.521 202.095 143.61 202.281C145.713 206.401 147.58 210.697 149.197 215.138C152.364 225.105 151.214 236.019 151.618 246.583C151.742 249.506 151.998 252.417 152.384 255.304C152.622 256.773 152.663 258.279 152.505 259.764Z" fill="url(#paint1_linear_1237_1524)"/>
<path d="M197.688 178.137C196.861 178.137 196.034 178.137 195.227 178.137C194.38 178.053 193.549 177.801 192.766 177.389C192.02 176.966 191.395 176.318 190.628 175.919C189.055 175.072 187.34 174.673 185.807 173.701C183.488 172.256 181.249 170.612 179.03 168.992L173.665 165.055C171.852 163.774 170.095 162.377 168.4 160.869L167.412 159.922C166.928 159.424 166.322 158.876 165.717 159.1C165.472 159.244 165.252 159.447 165.072 159.698C164.37 160.886 163.925 162.275 163.781 163.735C163.515 165.007 163.115 166.23 162.591 167.373C161.602 169.615 160.675 171.907 159.606 174.075C158.829 176.196 157.734 178.115 156.378 179.731C155.488 180.313 154.471 180.532 153.474 180.354C151.341 180.001 149.187 179.901 147.039 180.055C146.057 180.341 145.059 180.541 144.054 180.653C142.5 180.612 140.997 179.967 139.757 178.809C138.668 177.763 139.152 176.318 139.596 174.947C141.29 169.491 142.965 166.301 140.988 160.695C141.371 161.791 133.162 165.678 132.133 165.678C127.836 165.678 125.275 161.791 122.047 158.776C120.128 157.037 118.106 155.479 115.996 154.117C115.355 153.656 114.68 153.272 113.979 152.971C113.313 152.697 112.446 152.721 111.962 152.148C111.76 151.921 111.584 151.661 111.438 151.376C111.17 150.862 110.953 150.309 110.792 149.731C110.657 149.043 110.371 148.414 109.965 147.913C109.357 147.472 108.634 147.338 107.948 147.539C107.579 147.588 107.207 147.588 106.839 147.539C106.769 147.536 106.7 147.515 106.637 147.476C106.574 147.437 106.519 147.382 106.476 147.315C106.425 147.232 106.397 147.131 106.397 147.028C106.397 146.924 106.425 146.824 106.476 146.741C106.616 146.623 106.774 146.538 106.939 146.492L109.703 145.77C108.916 144.923 107.686 145.147 106.718 144.748C106.587 144.705 106.469 144.619 106.375 144.499C106.327 144.36 106.326 144.204 106.372 144.064C106.417 143.924 106.505 143.812 106.617 143.751C106.853 143.663 107.106 143.663 107.343 143.751L110.328 144.175C109.441 142.829 107.545 143.228 106.637 141.908C106.99 141.616 107.396 141.438 107.819 141.39C108.242 141.342 108.668 141.426 109.057 141.633C110.219 141.838 111.345 142.285 112.386 142.954C113.018 143.409 113.601 143.962 114.12 144.599C116.114 147.272 118.258 149.77 120.535 152.074C122.126 153.356 123.849 154.37 125.658 155.089C126.445 155.437 127.272 155.662 128.058 155.986C128.845 156.309 129.833 156.907 130.701 157.356C131.024 157.568 131.384 157.679 131.75 157.68C132.043 157.611 132.323 157.475 132.577 157.281C134.398 155.903 136.009 154.14 137.337 152.074C138.769 149.981 140.443 148.137 141.956 146.143C142.543 145.288 143.272 144.6 144.094 144.125C145.627 143.477 147.261 144.424 148.895 144.499C149.576 144.54 150.257 144.404 150.893 144.1C151.529 143.795 152.106 143.328 152.586 142.73C153.534 141.359 153.494 139.316 154.603 137.946C155.226 137.216 156.002 136.716 156.842 136.501C157.764 136.132 158.661 135.674 159.525 135.13C160.211 134.732 161.078 134.358 161.683 134.931C161.777 135.006 161.854 135.11 161.907 135.232C161.96 135.354 161.987 135.49 161.986 135.628C161.982 135.87 161.918 136.105 161.804 136.301C161.375 137.338 160.992 138.403 160.654 139.491C160.22 140.588 160.052 141.816 160.17 143.029C160.453 144.748 162.187 145.72 163.357 146.343C165.052 147.24 166.928 147.389 168.622 148.236C170.311 149.2 171.827 150.573 173.08 152.273C175.097 154.765 176.771 157.256 178.606 159.748C179.534 160.994 180.482 162.24 181.511 163.411C182.878 164.602 184.321 165.652 185.828 166.55C187.493 167.902 189.239 169.093 191.052 170.113C192.346 170.829 193.698 171.372 195.086 171.733C195.65 171.934 196.223 172.101 196.801 172.231C197.406 172.231 197.728 171.982 198.233 171.608C199.002 171.113 199.891 170.98 200.734 171.235C202.554 171.734 204.258 172.74 205.716 174.175C206.14 174.524 206.604 175.047 206.523 175.67C206.544 175.751 206.544 175.838 206.523 175.919C206.361 176.093 206.119 175.919 205.938 175.745C205.314 175.188 204.546 174.931 203.78 175.022C204.344 175.57 204.95 176.243 204.889 177.115C204.909 177.179 204.909 177.25 204.889 177.314C204.861 177.332 204.83 177.341 204.798 177.341C204.767 177.341 204.736 177.332 204.707 177.314C204.082 177.314 203.618 176.592 203.033 176.243C202.465 175.923 201.841 175.785 201.218 175.844C200.936 175.844 200.028 175.844 200.028 176.293C200.01 176.366 200.01 176.444 200.028 176.517C200.197 176.788 200.393 177.031 200.613 177.24C200.722 177.342 200.805 177.481 200.852 177.64C200.899 177.799 200.907 177.972 200.875 178.137C200.734 178.485 200.351 178.535 200.028 178.51C199.181 178.461 198.455 178.236 197.688 178.137Z" fill="#F89659"/>
<path d="M195.146 177.788C194.925 177.958 194.678 178.068 194.42 178.112C193.585 178.04 192.796 177.618 192.181 176.916C190.106 175.641 187.963 174.542 185.767 173.627C183.447 172.182 181.208 170.537 178.99 168.918L173.665 165.056C171.852 163.775 170.095 162.377 168.4 160.87C168.864 161.293 170.78 157.705 171.103 157.381C172.979 155.488 172.313 159.549 172.273 160.919C172.232 161.191 172.232 161.47 172.273 161.742C172.418 162.096 172.651 162.384 172.938 162.564C176.327 165.305 179.817 167.846 183.407 170.189C185.222 171.36 187.098 172.431 188.934 173.577C190.447 174.524 192.081 175.072 193.654 175.845C194.319 176.169 195.066 176.667 195.086 177.539C195.116 177.618 195.137 177.702 195.146 177.788Z" fill="#D57439"/>
<path d="M153.594 139.366C153.643 140.238 153.474 141.108 153.11 141.858C152.586 142.73 156.096 143.876 157.145 142.63C158.239 141.113 159.25 139.506 160.17 137.821L153.594 139.366Z" fill="#D57439"/>
<path d="M157.75 139.665C156.626 140.205 155.396 140.318 154.22 139.989C153.637 139.811 153.094 139.475 152.63 139.005C152.166 138.536 151.793 137.944 151.537 137.273C151.283 136.361 151.18 135.395 151.235 134.433C151.363 129.768 152.659 125.267 154.946 121.551C155.283 120.935 155.723 120.416 156.237 120.031C156.934 119.614 157.73 119.526 158.476 119.781C159.912 120.25 161.186 121.282 162.107 122.722C163.018 124.141 163.79 125.688 164.406 127.331C164.85 128.353 165.677 129.972 165.294 131.168C164.735 132.274 164.056 133.28 163.277 134.158C161.877 136.584 159.965 138.489 157.75 139.665Z" fill="#F89659"/>
<path d="M158.859 180.105C158.387 181.033 157.718 181.784 156.925 182.276C156.132 182.768 155.245 182.982 154.361 182.896C150.871 183.245 147.362 182.123 143.892 182.896C142.823 183.12 141.875 183.519 140.705 183.618H140.403C139.815 183.687 139.223 183.585 138.674 183.321C138.124 183.057 137.632 182.639 137.236 182.099C136.147 180.329 136.832 177.788 137.538 175.72C138.85 172.007 141.31 167.746 139.898 163.61C139.717 163.162 139.475 162.763 139.313 162.315C139.148 161.828 139.032 161.317 138.971 160.795L138.446 157.605C138.083 155.487 137.74 153.369 137.377 151.227C137.296 150.8 137.296 150.357 137.377 149.931C137.555 149.374 137.873 148.902 138.285 148.585L141.936 144.997C142.646 144.174 143.503 143.568 144.437 143.228C145.428 143.121 146.426 143.188 147.402 143.428C148.701 143.369 149.988 143.11 151.234 142.655H151.698C151.824 142.806 151.896 143.012 151.9 143.228C152.04 143.929 152.302 144.583 152.667 145.147C152.928 145.544 153.211 145.919 153.514 146.268L153.897 146.717L156.096 149.208C156.557 149.81 157.096 150.315 157.689 150.703C159.706 151.825 161.138 148.835 161.037 146.617C160.921 145.372 160.621 144.164 160.15 143.054C161.078 143.502 162.006 144.001 162.933 144.524C163.774 145.143 164.651 145.684 165.556 146.143C166.968 146.617 168.319 146.144 169.59 147.24C171.269 148.588 172.812 150.177 174.189 151.974L173.261 154.615C172.031 157.805 170.598 161.243 167.976 162.638C167.29 162.987 166.584 163.212 165.959 163.61C164.83 164.308 164.709 165.404 164.204 166.65C163.337 168.818 162.47 170.986 161.683 173.178C160.895 175.578 159.95 177.894 158.859 180.105Z" fill="white"/>
<path d="M162.51 148.934C162.673 148.688 162.88 148.492 163.115 148.361C163.307 148.299 163.508 148.299 163.7 148.361C166.242 148.61 168.783 148.959 171.305 149.383C168.178 145.944 163.236 146.094 159.888 143.178C159.424 144.25 159.888 145.496 160.13 146.667C160.271 147.723 160.271 148.8 160.13 149.856C160.557 149.978 161.003 149.957 161.422 149.795C161.84 149.633 162.216 149.336 162.51 148.934Z" fill="url(#paint2_linear_1237_1524)"/>
<path d="M113.192 151.6C112.635 151.78 112.044 151.719 111.518 151.426C111.247 150.914 111.03 150.361 110.873 149.781C110.737 149.093 110.451 148.463 110.046 147.962C109.436 147.524 108.715 147.391 108.029 147.588C108.409 147.291 108.849 147.127 109.299 147.115C109.542 147.106 109.778 147.024 109.989 146.876C110.2 146.729 110.379 146.52 110.51 146.268C110.51 146.069 110.51 145.819 110.711 145.645C110.913 145.471 111.236 145.421 111.518 145.471C112.088 145.64 112.642 145.883 113.172 146.193C113.552 146.366 113.902 146.628 114.201 146.966C114.345 147.099 114.466 147.267 114.556 147.46C114.646 147.652 114.704 147.866 114.725 148.087C114.544 148.087 114.282 147.838 114.1 147.713C113.869 147.565 113.625 147.448 113.374 147.364C112.861 147.195 112.329 147.136 111.8 147.19C111.8 147.19 111.639 147.19 111.619 147.19C111.599 147.19 111.619 147.414 111.74 147.489C112.486 148.211 113.434 148.56 114.16 149.333C114.279 149.418 114.371 149.55 114.423 149.706C114.492 149.914 114.492 150.147 114.423 150.354C114.324 150.677 114.158 150.962 113.942 151.18C113.726 151.399 113.468 151.544 113.192 151.6Z" fill="#D57439"/>
<path d="M172.293 248.925C171.988 248.714 171.65 248.587 171.302 248.553C170.954 248.518 170.604 248.577 170.276 248.726C169.973 248.978 169.684 249.253 169.408 249.548C168.54 249.973 167.574 249.973 166.706 249.548C165.752 249.18 164.773 248.922 163.781 248.776C163.781 248.776 163.781 251.268 164.144 251.492C164.618 251.696 165.114 251.814 165.616 251.841C167.625 252.16 169.659 252.16 171.668 251.841C172.232 251.691 174.128 251.317 174.391 250.545C174.653 249.773 172.817 249.15 172.293 248.925Z" fill="#66075F"/>
<path d="M160.614 271.6C160.978 272.1 161.21 272.726 161.28 273.394C161.289 273.626 161.232 273.855 161.118 274.041C160.983 274.167 160.823 274.245 160.654 274.266C159.329 274.626 157.961 274.677 156.62 274.415C155.298 274.16 154.087 273.35 153.191 272.123C152.606 271.251 152.223 270.204 151.678 269.307C151.134 268.41 150.63 267.837 150.206 267.015C149.782 266.193 150.206 264.723 150.529 263.826C150.892 263.826 150.771 264.698 150.932 265.096C151.481 266.561 152.263 267.875 153.232 268.958C153.646 269.545 154.153 270.02 154.722 270.355C155.291 270.689 155.91 270.875 156.54 270.902C156.769 270.902 156.995 270.834 157.198 270.704C157.402 270.574 157.577 270.386 157.709 270.154C157.911 269.756 157.709 268.834 158.052 268.684C158.395 268.535 160.291 271.201 160.614 271.6Z" fill="#66075F"/>
<path d="M164.991 246.085H164.81C163.962 245.736 163.478 244.266 163.478 242.796L163.841 216.384C163.911 216.074 163.911 215.747 163.841 215.437C163.674 215.157 163.452 214.934 163.196 214.789C162.591 214.39 162.006 213.967 161.421 213.543C159.626 212.272 157.871 210.902 156.156 209.482L155.107 198.942C155.107 198.942 165.737 207.638 166.847 211.724C167.956 215.811 164.991 246.085 164.991 246.085Z" fill="url(#paint3_linear_1237_1524)"/>
<path d="M159.928 128.427C160.73 128.793 161.552 129.085 162.389 129.299C163.216 129.648 164.043 130.421 164.063 131.467C164.769 131.467 165.152 130.47 165.354 129.648C165.762 128.274 166.033 126.843 166.161 125.387C166.275 123.928 165.991 122.463 165.354 121.226C164.204 119.208 159.948 115.421 158.597 118.959C157.568 121.7 157.447 126.832 159.928 128.427Z" fill="#473F47"/>
<path d="M181.329 236.816C179.837 236.517 178.344 236.218 176.851 235.869L177.336 232.605C178.808 232.929 180.28 233.253 181.753 233.527L181.329 236.816Z" fill="#66075F"/>
<path d="M167.916 233.676C166.443 233.278 164.991 232.854 163.519 232.406L164.144 229.191L168.501 230.437L167.916 233.676Z" fill="#66075F"/>
<path d="M154.744 229.59L150.387 228.02L151.174 224.831C152.606 225.379 154.038 225.877 155.47 226.376L154.744 229.59Z" fill="#66075F"/>
<path d="M141.774 224.581C140.362 223.983 138.93 223.361 137.518 222.713L138.446 219.598L142.662 221.442L141.774 224.581Z" fill="#66075F"/>
<path d="M207.854 180.155L228.61 125.886L265.684 136.8L244.565 191.667L207.854 180.155Z" fill="#66075F"/>
<path d="M52.5591 63.3948L116.299 38.2537L132.234 119.632L78.882 153.37L52.5591 63.3948Z" fill="white"/>
<path d="M48.8675 224.582L79.1842 248.028L89.3705 206.293L55.9273 178.112L48.8675 224.582Z" fill="#66075F"/>
<path d="M208.359 269.208L214.127 222.539L257.979 218.976L248.559 264.125L208.359 269.208Z" fill="white"/>
<path d="M222.72 172.381L218.888 171.309L221.893 163.959L225.746 165.03L222.72 172.381Z" fill="white"/>
<path d="M227.46 173.676L223.608 172.63L229.76 157.655L233.612 158.701L227.46 173.676Z" fill="#66075F"/>
<path d="M232.201 174.997L228.348 173.926L232.1 164.806L235.932 165.878L232.201 174.997Z" fill="white"/>
<path d="M236.92 176.318L233.088 175.247L241.196 155.537L245.029 156.609L236.92 176.318Z" fill="#66075F"/>
<path d="M270.664 113.211L266.811 112.165L272.963 97.1899L276.816 98.2364L270.664 113.211Z" fill="url(#paint4_linear_1237_1524)"/>
<path d="M236.92 176.318L233.088 175.247L241.196 155.537L245.029 156.609L236.92 176.318Z" fill="url(#paint5_linear_1237_1524)"/>
<path d="M241.66 177.638L237.828 176.567L248.196 151.351L252.028 152.422L241.66 177.638Z" fill="white"/>
<path d="M84.8522 89.9809C84.8432 87.8125 85.222 85.6685 85.9616 83.7019L78.458 78.5939C77.0304 82.1301 76.2913 86.0294 76.2998 89.9809C76.3148 95.7049 77.8709 101.26 80.723 105.771C83.5752 110.282 87.5612 113.493 92.0532 114.898L93.5862 104.358C91.077 103.431 88.8746 101.534 87.3026 98.9461C85.7306 96.3584 84.8717 93.2162 84.8522 89.9809Z" fill="#473F47"/>
<path opacity="0.18" d="M115.008 103.237C113.143 107.048 110.511 110.198 107.369 112.381C104.227 114.564 100.681 115.706 97.0761 115.695C95.348 115.696 93.6267 115.428 91.9527 114.898L93.4857 104.358C94.6505 104.789 95.8601 105.008 97.0761 105.006C99.1337 105.011 101.159 104.374 102.964 103.154C104.77 101.935 106.297 100.172 107.404 98.0293L115.008 103.237Z" fill="#66075F"/>
<path d="M117.973 89.9809C117.978 94.6502 116.953 99.233 115.008 103.237L107.403 98.1287C108.321 96.3804 108.936 94.4169 109.21 92.3612C109.485 90.3054 109.412 88.2019 108.997 86.1824C108.583 84.1629 107.835 82.2711 106.8 80.6255C105.766 78.9799 104.467 77.616 102.986 76.6194C101.505 75.6228 99.8732 75.015 98.193 74.8341C96.5127 74.6531 94.8203 74.903 93.2219 75.5679C91.6235 76.2329 90.1536 77.2986 88.9043 78.6983C87.655 80.098 86.6532 81.8014 85.9619 83.7018L78.4583 78.5939C80.5377 73.3639 83.9896 69.1579 88.2515 66.6612C92.5135 64.1645 97.3342 63.5242 101.928 64.8448C106.523 66.1653 110.619 69.3688 113.551 73.9333C116.483 78.4977 118.077 84.1541 118.074 89.9809H117.973Z" fill="#66075F"/>
<path d="M221.671 254.806C221.666 254.663 221.684 254.521 221.726 254.388C221.768 254.255 221.831 254.134 221.913 254.033C222.289 253.561 222.559 252.978 222.7 252.339C222.786 251.937 222.768 251.512 222.648 251.123C222.529 250.735 222.314 250.402 222.034 250.171C221.69 249.851 221.3 249.614 220.884 249.474C220.678 249.404 220.499 249.244 220.381 249.025C220.262 248.805 220.212 248.54 220.239 248.278C220.239 247.954 220.239 247.605 220.239 247.281C220.247 247.13 220.278 246.983 220.332 246.848C220.386 246.712 220.461 246.591 220.553 246.492C220.645 246.392 220.752 246.316 220.867 246.267C220.983 246.219 221.105 246.199 221.227 246.209C221.625 246.203 222.017 246.092 222.377 245.886C222.765 245.7 223.083 245.341 223.266 244.879C223.449 244.417 223.485 243.887 223.365 243.394C223.268 242.957 223.14 242.532 222.982 242.123C222.889 241.887 222.867 241.617 222.918 241.362C222.97 241.107 223.093 240.883 223.265 240.728C223.475 240.542 223.677 240.343 223.87 240.13C224.049 239.96 224.269 239.868 224.495 239.868C224.721 239.868 224.941 239.96 225.12 240.13C225.416 240.498 225.765 240.794 226.149 241.002C226.499 241.186 226.89 241.218 227.257 241.091C227.623 240.964 227.944 240.687 228.166 240.304C228.432 239.853 228.631 239.347 228.751 238.809C228.82 238.559 228.96 238.347 229.146 238.215C229.331 238.082 229.549 238.036 229.76 238.087H230.566C230.782 238.111 230.983 238.235 231.128 238.434C231.274 238.632 231.354 238.89 231.353 239.158C231.375 239.802 231.513 240.432 231.756 241.002C231.935 241.371 232.201 241.664 232.518 241.842C232.835 242.02 233.189 242.075 233.532 241.999C233.925 241.896 234.305 241.729 234.661 241.5C234.868 241.351 235.114 241.306 235.347 241.376C235.581 241.445 235.783 241.624 235.912 241.874C236.053 242.173 236.275 242.422 236.436 242.721C236.545 242.931 236.594 243.18 236.576 243.428C236.558 243.676 236.473 243.909 236.335 244.092C236.029 244.477 235.789 244.935 235.629 245.437C235.45 245.927 235.435 246.483 235.586 246.987C235.737 247.491 236.042 247.901 236.436 248.128C236.73 248.342 237.041 248.518 237.364 248.651C237.556 248.718 237.723 248.863 237.84 249.062C237.957 249.26 238.017 249.502 238.009 249.748C238.009 250.146 238.009 250.545 237.888 250.969C237.859 251.23 237.752 251.47 237.588 251.64C237.424 251.81 237.215 251.899 237.001 251.891C236.525 251.916 236.059 252.06 235.629 252.314C235.303 252.505 235.038 252.823 234.873 253.22C234.709 253.616 234.656 254.069 234.722 254.507C234.787 255.018 234.916 255.514 235.105 255.977C235.171 256.1 235.216 256.239 235.238 256.384C235.259 256.53 235.257 256.679 235.231 256.824C235.204 256.968 235.154 257.104 235.084 257.224C235.014 257.344 234.925 257.445 234.822 257.522L234.258 258.045C234.091 258.249 233.867 258.363 233.632 258.363C233.398 258.363 233.173 258.249 233.007 258.045C232.678 257.657 232.286 257.36 231.857 257.173C231.498 256.998 231.101 256.982 230.734 257.128C230.366 257.273 230.051 257.571 229.84 257.97C229.591 258.399 229.406 258.88 229.296 259.391C229.235 259.634 229.107 259.843 228.933 259.98C228.759 260.117 228.552 260.173 228.348 260.138L227.4 259.989C227.206 259.945 227.03 259.824 226.899 259.643C226.767 259.463 226.688 259.234 226.673 258.992C226.667 258.389 226.557 257.794 226.351 257.248C226.186 256.786 225.889 256.416 225.516 256.209C225.144 256.002 224.723 255.973 224.334 256.126C223.954 256.255 223.583 256.422 223.224 256.625C223.043 256.739 222.836 256.777 222.635 256.732C222.435 256.687 222.252 256.562 222.115 256.376C221.913 256.052 221.711 255.753 221.53 255.404C221.439 255.209 221.371 255 221.328 254.781L221.671 254.806ZM229.215 245.462C228.632 245.457 228.06 245.666 227.573 246.063C227.086 246.46 226.706 247.026 226.48 247.69C226.254 248.355 226.193 249.087 226.304 249.794C226.415 250.501 226.694 251.152 227.105 251.663C227.516 252.175 228.041 252.523 228.613 252.666C229.185 252.808 229.778 252.738 230.317 252.463C230.856 252.189 231.318 251.722 231.642 251.123C231.966 250.525 232.14 249.82 232.14 249.1C232.14 248.618 232.062 248.141 231.912 247.696C231.761 247.251 231.541 246.848 231.263 246.51C230.985 246.171 230.656 245.904 230.294 245.724C229.932 245.545 229.545 245.455 229.154 245.462H229.215Z" fill="#66075F"/>
<path d="M243.98 244.241C243.99 244.382 243.99 244.524 243.98 244.665C243.974 244.837 243.921 245.002 243.829 245.133C243.738 245.264 243.613 245.354 243.476 245.387L242.871 245.586C242.713 245.64 242.544 245.621 242.396 245.534C242.248 245.447 242.13 245.298 242.064 245.113C241.923 244.814 241.781 244.515 241.62 244.241C241.514 244.066 241.38 243.92 241.226 243.812C241.072 243.704 240.902 243.637 240.726 243.613C240.55 243.59 240.372 243.611 240.203 243.676C240.034 243.742 239.878 243.849 239.744 243.992C239.542 244.179 239.353 244.387 239.179 244.615C239.074 244.765 238.93 244.864 238.771 244.896C238.613 244.928 238.45 244.89 238.312 244.789L237.828 244.44C237.659 244.338 237.529 244.159 237.465 243.94C237.401 243.722 237.408 243.481 237.485 243.269C237.584 242.924 237.645 242.563 237.667 242.198C237.689 241.8 237.587 241.406 237.38 241.1C237.173 240.793 236.878 240.597 236.557 240.553C236.242 240.528 235.925 240.528 235.609 240.553C235.452 240.548 235.301 240.472 235.186 240.338C235.07 240.205 234.999 240.025 234.984 239.831C234.955 239.62 234.915 239.412 234.863 239.208C234.813 239.006 234.825 238.788 234.895 238.596C234.966 238.403 235.09 238.249 235.246 238.161C235.549 237.982 235.828 237.746 236.073 237.464C236.293 237.219 236.432 236.884 236.466 236.522C236.499 236.159 236.424 235.794 236.255 235.495C236.091 235.227 235.916 234.969 235.73 234.723C235.646 234.656 235.573 234.568 235.518 234.464C235.464 234.36 235.427 234.243 235.412 234.12C235.397 233.997 235.403 233.872 235.43 233.753C235.457 233.633 235.504 233.522 235.569 233.427L235.811 232.879C235.899 232.698 236.038 232.562 236.202 232.498C236.365 232.434 236.541 232.445 236.698 232.53C237.042 232.708 237.417 232.777 237.788 232.729C238.042 232.721 238.287 232.609 238.484 232.411C238.681 232.212 238.819 231.939 238.877 231.633C238.951 231.224 238.985 230.806 238.978 230.387C238.964 230.195 239.002 230.003 239.086 229.841C239.17 229.679 239.295 229.555 239.442 229.49L240.148 229.291C240.308 229.236 240.48 229.26 240.626 229.357C240.773 229.455 240.883 229.618 240.934 229.814C241.091 230.261 241.333 230.655 241.64 230.96C241.866 231.196 242.152 231.325 242.447 231.325C242.742 231.325 243.028 231.196 243.254 230.96C243.436 230.789 243.605 230.597 243.758 230.387C243.864 230.231 244.009 230.124 244.17 230.083C244.331 230.042 244.499 230.071 244.646 230.163L245.231 230.586C245.366 230.69 245.467 230.85 245.515 231.037C245.563 231.225 245.555 231.427 245.493 231.608C245.365 232.013 245.303 232.445 245.311 232.879C245.313 233.255 245.424 233.618 245.624 233.901C245.824 234.185 246.099 234.37 246.401 234.424H247.248C247.418 234.402 247.589 234.463 247.724 234.593C247.859 234.723 247.949 234.912 247.974 235.121C247.974 235.371 248.075 235.62 248.115 235.869C248.16 236.054 248.145 236.253 248.074 236.425C248.002 236.597 247.88 236.728 247.732 236.791C247.404 236.963 247.109 237.218 246.865 237.538C246.674 237.767 246.55 238.067 246.513 238.392C246.477 238.718 246.529 239.048 246.663 239.332C246.837 239.68 247.048 239.998 247.288 240.279C247.431 240.417 247.527 240.617 247.557 240.838C247.587 241.06 247.549 241.287 247.449 241.475L247.167 242.048C247.128 242.148 247.074 242.237 247.007 242.309C246.94 242.382 246.862 242.438 246.777 242.473C246.693 242.508 246.603 242.521 246.514 242.512C246.425 242.504 246.339 242.473 246.259 242.422C245.827 242.249 245.361 242.249 244.928 242.422C244.709 242.504 244.512 242.659 244.359 242.87C244.206 243.081 244.103 243.34 244.061 243.618C244.04 243.9 244.04 244.183 244.061 244.465L243.98 244.241ZM241.479 234.673C241.189 234.67 240.9 234.737 240.631 234.872C240.362 235.007 240.118 235.207 239.911 235.459C239.705 235.712 239.541 236.013 239.429 236.344C239.318 236.675 239.26 237.03 239.26 237.389C239.256 237.932 239.383 238.464 239.624 238.918C239.866 239.372 240.211 239.727 240.616 239.939C241.021 240.15 241.468 240.208 241.899 240.105C242.331 240.002 242.728 239.743 243.041 239.361C243.353 238.978 243.566 238.49 243.653 237.958C243.741 237.425 243.698 236.873 243.531 236.371C243.363 235.868 243.079 235.439 242.714 235.137C242.348 234.834 241.919 234.673 241.479 234.673Z" fill="#66075F"/>
<path d="M66.3155 224.681C71.5847 224.681 75.8563 219.405 75.8563 212.896C75.8563 206.387 71.5847 201.11 66.3155 201.11C61.0462 201.11 56.7747 206.387 56.7747 212.896C56.7747 219.405 61.0462 224.681 66.3155 224.681Z" fill="#473F47"/>
<path d="M66.3558 198.942V213.344L76.6227 204.199C76.6227 204.199 71.8826 197.821 66.3558 198.942Z" fill="white"/>
<path d="M132.879 252.962L120.232 257.347L124.609 267.788L133.585 264.673L132.879 252.962Z" fill="#66075F"/>
<path d="M132.879 255.962L120.232 260.347L124.609 270.788L133.585 267.673L132.879 255.962Z" fill="url(#paint6_linear_1237_1524)"/>
<path d="M112.345 231.135C112.231 232.03 112.301 232.947 112.547 233.801C113.268 237.816 114.551 241.644 116.339 245.113C119.143 250.096 123.52 253.211 127.756 256.226C127.393 255.852 127.453 253.087 127.393 252.464L127.09 248.776C126.832 246.828 126.218 244.979 125.295 243.369C123.447 239.613 120.903 236.453 117.872 234.15C116.154 232.827 114.294 231.812 112.345 231.135Z" fill="#66075F"/>
<path d="M112.345 231.135C112.231 232.03 112.301 232.947 112.547 233.801C113.268 237.816 114.551 241.644 116.339 245.113C119.143 250.096 123.52 253.211 127.756 256.226C127.393 255.852 127.453 253.087 127.393 252.464L127.09 248.776C126.832 246.828 126.218 244.979 125.295 243.369C123.447 239.613 120.903 236.453 117.872 234.15C116.154 232.827 114.294 231.812 112.345 231.135Z" fill="url(#paint7_linear_1237_1524)"/>
<path d="M129.773 238.81C130.204 235.514 130.278 232.163 129.995 228.843C129.674 225.465 128.281 222.382 126.122 220.271L122.955 234.026C122.233 236.635 121.845 239.367 121.805 242.124C121.973 244.838 122.597 247.479 123.639 249.878C124.681 252.276 126.118 254.379 127.856 256.052C128.865 254.084 128.643 250.545 128.865 248.228L129.773 238.81Z" fill="#66075F"/>
<path d="M129.773 238.81C130.204 235.514 130.278 232.163 129.995 228.843C129.674 225.465 128.281 222.382 126.122 220.271L122.955 234.026C122.233 236.635 121.845 239.367 121.805 242.124C121.973 244.838 122.597 247.479 123.639 249.878C124.681 252.276 126.118 254.379 127.856 256.052C128.865 254.084 128.643 250.545 128.865 248.228L129.773 238.81Z" fill="url(#paint8_linear_1237_1524)"/>
<path d="M132.49 248.974L118.919 253.696C117.782 254.092 117.119 255.545 117.438 256.943C117.756 258.34 118.936 259.152 120.073 258.757L133.644 254.035C134.781 253.64 135.444 252.186 135.125 250.789C134.806 249.391 133.627 248.579 132.49 248.974Z" fill="#66075F"/>
</g>
<defs>
<filter id="filter0_d_1237_1524" x="0" y="0" width="310.669" height="304.707" filterUnits="userSpaceOnUse" color-interpolation-filters="sRGB">
<feFlood flood-opacity="0" result="BackgroundImageFix"/>
<feColorMatrix in="SourceAlpha" type="matrix" values="0 0 0 0 0 0 0 0 0 0 0 0 0 0 0 0 0 0 127 0" result="hardAlpha"/>
<feOffset dy="4"/>
<feGaussianBlur stdDeviation="2"/>
<feComposite in2="hardAlpha" operator="out"/>
<feColorMatrix type="matrix" values="0 0 0 0 0 0 0 0 0 0 0 0 0 0 0 0 0 0 0.25 0"/>
<feBlend mode="normal" in2="BackgroundImageFix" result="effect1_dropShadow_1237_1524"/>
<feBlend mode="normal" in="SourceGraphic" in2="effect1_dropShadow_1237_1524" result="shape"/>
</filter>
<linearGradient id="paint0_linear_1237_1524" x1="201.319" y1="78.5687" x2="245.755" y2="78.5687" gradientUnits="userSpaceOnUse">
<stop offset="0.01"/>
<stop offset="0.08" stop-opacity="0.69"/>
<stop offset="0.21" stop-opacity="0.32"/>
<stop offset="1" stop-opacity="0"/>
</linearGradient>
<linearGradient id="paint1_linear_1237_1524" x1="50.2742" y1="125.905" x2="514.918" y2="426.207" gradientUnits="userSpaceOnUse">
<stop offset="0.01"/>
<stop offset="0.08" stop-opacity="0.69"/>
<stop offset="0.21" stop-opacity="0.32"/>
<stop offset="1" stop-opacity="0"/>
</linearGradient>
<linearGradient id="paint2_linear_1237_1524" x1="85.1144" y1="53.0368" x2="341.321" y2="254.04" gradientUnits="userSpaceOnUse">
<stop offset="0.01"/>
<stop offset="0.08" stop-opacity="0.69"/>
<stop offset="0.21" stop-opacity="0.32"/>
<stop offset="1" stop-opacity="0"/>
</linearGradient>
<linearGradient id="paint3_linear_1237_1524" x1="141.547" y1="225.418" x2="219.085" y2="217.456" gradientUnits="userSpaceOnUse">
<stop offset="0.01"/>
<stop offset="0.08" stop-opacity="0.69"/>
<stop offset="0.21" stop-opacity="0.32"/>
<stop offset="1" stop-opacity="0"/>
</linearGradient>
<linearGradient id="paint4_linear_1237_1524" x1="273.041" y1="73.1279" x2="308.31" y2="177.104" gradientUnits="userSpaceOnUse">
<stop offset="0.01"/>
<stop offset="0.08" stop-opacity="0.69"/>
<stop offset="0.21" stop-opacity="0.32"/>
<stop offset="1" stop-opacity="0"/>
</linearGradient>
<linearGradient id="paint5_linear_1237_1524" x1="240.383" y1="130.021" x2="275.633" y2="234.001" gradientUnits="userSpaceOnUse">
<stop offset="0.01"/>
<stop offset="0.08" stop-opacity="0.69"/>
<stop offset="0.21" stop-opacity="0.32"/>
<stop offset="1" stop-opacity="0"/>
</linearGradient>
<linearGradient id="paint6_linear_1237_1524" x1="117.241" y1="246.002" x2="152.283" y2="280.628" gradientUnits="userSpaceOnUse">
<stop offset="0.01"/>
<stop offset="0.08" stop-opacity="0.69"/>
<stop offset="0.21" stop-opacity="0.32"/>
<stop offset="1" stop-opacity="0"/>
</linearGradient>
<linearGradient id="paint7_linear_1237_1524" x1="131.885" y1="236.478" x2="94.8346" y2="250.884" gradientUnits="userSpaceOnUse">
<stop offset="0.01"/>
<stop offset="0.13" stop-opacity="0.69"/>
<stop offset="0.25" stop-opacity="0.32"/>
<stop offset="1" stop-opacity="0"/>
</linearGradient>
<linearGradient id="paint8_linear_1237_1524" x1="101.798" y1="254.656" x2="159.128" y2="229.999" gradientUnits="userSpaceOnUse">
<stop offset="0.01"/>
<stop offset="0.13" stop-opacity="0.69"/>
<stop offset="0.25" stop-opacity="0.32"/>
<stop offset="1" stop-opacity="0"/>
</linearGradient>
</defs>
</svg>
