<svg width="30" height="30" viewBox="0 0 30 30" fill="none" xmlns="http://www.w3.org/2000/svg">
<g id="icon">
<path id="Vector" fill-rule="evenodd" clip-rule="evenodd" d="M15 27C18.1826 27 21.2348 25.7357 23.4853 23.4853C25.7357 21.2348 27 18.1826 27 15C27 11.8174 25.7357 8.76515 23.4853 6.51472C21.2348 4.26428 18.1826 3 15 3C11.8174 3 8.76515 4.26428 6.51472 6.51472C4.26428 8.76515 3 11.8174 3 15C3 18.1826 4.26428 21.2348 6.51472 23.4853C8.76515 25.7357 11.8174 27 15 27ZM13.06 10.94C12.7757 10.675 12.3996 10.5308 12.011 10.5377C11.6224 10.5445 11.2516 10.7019 10.9768 10.9768C10.7019 11.2516 10.5445 11.6224 10.5377 12.011C10.5308 12.3996 10.675 12.7757 10.94 13.06L12.8788 15L10.94 16.94C10.7926 17.0773 10.6744 17.2429 10.5924 17.4269C10.5105 17.6109 10.4664 17.8095 10.4628 18.011C10.4593 18.2124 10.4963 18.4124 10.5718 18.5992C10.6472 18.786 10.7595 18.9556 10.9019 19.0981C11.0444 19.2405 11.214 19.3528 11.4008 19.4282C11.5876 19.5037 11.7876 19.5407 11.989 19.5372C12.1905 19.5336 12.3891 19.4895 12.5731 19.4076C12.7571 19.3256 12.9227 19.2074 13.06 19.06L15 17.1212L16.94 19.06C17.2243 19.325 17.6004 19.4692 17.989 19.4623C18.3776 19.4555 18.7484 19.2981 19.0232 19.0232C19.2981 18.7484 19.4555 18.3776 19.4623 17.989C19.4692 17.6004 19.325 17.2243 19.06 16.94L17.1212 15L19.06 13.06C19.325 12.7757 19.4692 12.3996 19.4623 12.011C19.4555 11.6224 19.2981 11.2516 19.0232 10.9768C18.7484 10.7019 18.3776 10.5445 17.989 10.5377C17.6004 10.5308 17.2243 10.675 16.94 10.94L15 12.8788L13.06 10.94Z" fill="#66075F"/>
</g>
</svg>
