<svg width="100" height="100" viewBox="0 0 100 100" fill="none" xmlns="http://www.w3.org/2000/svg">
<g id="icon">
<g clip-path="url(#clip0_587_2620)">
<rect width="100" height="100" rx="50" fill="white"/>
<path id="Vector" d="M100 50C100 63.2608 94.7322 75.9785 85.3553 85.3553C75.9785 94.7322 63.2608 100 50 100C36.7392 100 24.0215 94.7322 14.6447 85.3553C5.26784 75.9785 0 63.2608 0 50C0 36.7392 5.26784 24.0215 14.6447 14.6447C24.0215 5.26784 36.7392 0 50 0C63.2608 0 75.9785 5.26784 85.3553 14.6447C94.7322 24.0215 100 36.7392 100 50ZM50 25C49.21 25.0004 48.4289 25.1664 47.707 25.4871C46.9851 25.8077 46.3383 26.2761 45.8084 26.8619C45.2785 27.4478 44.8772 28.1382 44.6303 28.8885C44.3834 29.6389 44.2964 30.4327 44.375 31.2188L46.5625 53.1375C46.636 53.9986 47.03 54.8007 47.6665 55.3852C48.3031 55.9697 49.1358 56.2941 50 56.2941C50.8642 56.2941 51.6969 55.9697 52.3335 55.3852C52.97 54.8007 53.364 53.9986 53.4375 53.1375L55.625 31.2188C55.7036 30.4327 55.6166 29.6389 55.3697 28.8885C55.1228 28.1382 54.7215 27.4478 54.1916 26.8619C53.6617 26.2761 53.0149 25.8077 52.293 25.4871C51.5711 25.1664 50.79 25.0004 50 25ZM50.0125 62.5C48.3549 62.5 46.7652 63.1585 45.5931 64.3306C44.421 65.5027 43.7625 67.0924 43.7625 68.75C43.7625 70.4076 44.421 71.9973 45.5931 73.1694C46.7652 74.3415 48.3549 75 50.0125 75C51.6701 75 53.2598 74.3415 54.4319 73.1694C55.604 71.9973 56.2625 70.4076 56.2625 68.75C56.2625 67.0924 55.604 65.5027 54.4319 64.3306C53.2598 63.1585 51.6701 62.5 50.0125 62.5Z" fill="#E43232"/>
</g>
</g>
<defs>
<clipPath id="clip0_587_2620">
<rect width="100" height="100" rx="50" fill="white"/>
</clipPath>
</defs>
</svg>
