<svg width="31" height="31" viewBox="0 0 31 31" fill="none" xmlns="http://www.w3.org/2000/svg">
<g id="icon">
<path id="Vector" d="M25.5 8V23C25.5 23.663 25.2366 24.2989 24.7678 24.7678C24.2989 25.2366 23.663 25.5 23 25.5H8C7.33696 25.5 6.70107 25.2366 6.23223 24.7678C5.76339 24.2989 5.5 23.663 5.5 23V8C5.5 7.33696 5.76339 6.70107 6.23223 6.23223C6.70107 5.76339 7.33696 5.5 8 5.5H23C23.663 5.5 24.2989 5.76339 24.7678 6.23223C25.2366 6.70107 25.5 7.33696 25.5 8Z" fill="#66075F" stroke="#66075F" stroke-width="2" stroke-linecap="round" stroke-linejoin="round"/>
<path id="Vector_2" d="M25.5 16.75H22.2675C21.936 16.7501 21.6181 16.8818 21.3838 17.1163L18.3663 20.1337C18.1319 20.3682 17.814 20.4999 17.4825 20.5H13.5175C13.186 20.4999 12.8681 20.3682 12.6337 20.1337L9.61625 17.1163C9.38188 16.8818 9.06399 16.7501 8.7325 16.75H5.5" stroke="white" stroke-width="2" stroke-linecap="round" stroke-linejoin="round"/>
</g>
</svg>
